<svg xmlns="http://www.w3.org/2000/svg" viewBox="0 0 320 200" fill="none" role="img" aria-hidden="true">
  <rect x="18" y="28" width="184" height="144" rx="16" fill="#F4F7F5" stroke="#1A4D57" stroke-opacity="0.18" stroke-width="1.5"/>
  <rect x="34" y="44" width="48" height="6" rx="3" fill="#1A4D57" fill-opacity="0.85"/>
  <rect x="34" y="60" width="96" height="10" rx="4" fill="#1A4D57" fill-opacity="0.55"/>
  <g stroke="#1A4D57" stroke-opacity="0.2" stroke-width="1">
    <rect x="34" y="88" width="22" height="22" rx="6"/>
    <rect x="62" y="88" width="22" height="22" rx="6"/>
    <rect x="90" y="88" width="22" height="22" rx="6"/>
    <rect x="118" y="88" width="22" height="22" rx="6"/>
    <rect x="34" y="118" width="22" height="22" rx="6"/>
    <rect x="62" y="118" width="22" height="22" rx="6"/>
    <rect x="90" y="118" width="22" height="22" rx="6"/>
    <rect x="118" y="118" width="22" height="22" rx="6"/>
  </g>
  <rect x="90" y="118" width="22" height="22" rx="6" fill="#1A4D57"/>
  <rect x="220" y="52" width="82" height="116" rx="14" fill="#1A4D57"/>
  <rect x="236" y="72" width="50" height="8" rx="4" fill="#E8B86D"/>
  <rect x="236" y="90" width="40" height="6" rx="3" fill="#F4F7F5" fill-opacity="0.45"/>
  <rect x="236" y="108" width="50" height="22" rx="8" fill="#F4F7F5" fill-opacity="0.12" stroke="#E8B86D" stroke-width="1.5" stroke-dasharray="4 3"/>
  <circle cx="261" cy="152" r="12" fill="#E8B86D"/>
  <path d="M256 152.5l3.2 3.2 7-7" stroke="#1A4D57" stroke-width="2.2" stroke-linecap="round" stroke-linejoin="round"/>
</svg>
